{"glyphs":{"0":{"ha":1157,"x_min":386,"x_max":1003,"o":"m 694 -11 q 549 43 618 -11 q 457 160 496 86 q 404 310 422 226 q 386 486 386 394 q 404 662 386 578 q 457 813 422 746 q 549 931 496 886 q 694 985 618 985 q 839 931 772 985 q 931 813 893 886 q 984 662 965 746 q 1003 486 1003 578 q 984 310 1003 394 q 931 160 965 226 q 839 43 893 86 q 694 -11 772 -11 m 642 718 q 606 613 618 674 q 594 486 594 553 q 606 360 594 419 q 642 256 618 300 q 665 228 651 238 q 694 219 679 219 q 723 228 708 219 q 747 256 738 238 q 783 360 771 300 q 794 486 794 419 q 783 613 794 553 q 747 718 771 674 q 723 745 738 736 q 694 754 708 754 q 665 745 679 754 q 642 718 651 736 z "},"1":{"ha":1157,"x_min":454,"x_max":935,"o":"m 728 986 l 935 986 l 935 -10 l 728 -10 l 728 763 l 526 688 l 454 882 l 728 985 l 728 986 l 728 986 z "},"2":{"ha":1157,"x_min":350,"x_max":1039,"o":"m 699 194 l 1039 194 l 1039 -14 l 350 -14 l 350 194 l 354 194 l 781 519 q 817 566 804 538 q 831 628 831 594 q 822 678 831 654 q 799 719 814 701 q 766 746 785 736 q 725 756 747 756 q 684 746 703 756 q 651 719 665 736 q 628 678 636 701 q 619 628 619 654 l 619 618 l 413 607 l 413 628 q 437 758 413 697 q 504 865 461 819 q 603 938 547 911 q 725 964 660 964 q 847 938 790 964 q 947 865 904 911 q 1015 758 990 819 q 1039 628 1039 697 q 1003 472 1039 544 q 904 353 968 400 l 699 194 z "},"3":{"ha":1157,"x_min":408,"x_max":981,"o":"m 981 699 q 950 588 981 640 q 886 496 919 536 q 950 404 919 456 q 981 294 981 353 q 958 175 981 231 q 897 78 936 119 q 806 13 858 36 q 694 -11 754 -11 q 583 13 635 -11 q 492 78 531 36 q 431 175 453 119 q 408 294 408 231 l 615 294 q 639 225 615 254 q 694 196 663 196 q 749 225 726 196 q 772 294 772 254 q 766 336 772 314 q 749 377 760 358 q 725 408 739 396 q 694 421 711 421 l 694 563 q 725 576 711 563 q 749 610 739 590 q 766 654 760 631 q 772 699 772 678 q 749 767 772 739 q 694 796 726 796 q 639 767 663 796 q 615 699 615 739 l 408 699 q 431 817 408 761 q 492 914 453 872 q 583 980 531 956 q 694 1004 635 1004 q 806 980 754 1004 q 897 914 858 956 q 958 817 936 872 q 981 699 981 761 z "},"4":{"ha":1157,"x_min":319,"x_max":1069,"o":"m 922 476 l 1069 476 l 1069 268 l 922 268 l 922 -11 l 714 -11 l 714 268 l 319 268 l 319 476 l 560 990 l 788 990 l 549 476 l 714 476 l 714 606 l 922 606 l 922 476 l 922 476 z "},"5":{"ha":1157,"x_min":340,"x_max":1047,"o":"m 1047 757 l 665 757 l 833 600 l 832 597 l 833 599 q 931 479 896 551 q 967 324 967 407 q 942 193 967 254 q 875 86 918 132 q 775 14 832 40 q 654 -12 718 -12 q 532 14 589 -12 q 433 86 475 40 q 365 193 390 132 q 340 324 340 254 q 340 334 340 329 q 342 346 340 339 l 549 333 l 549 324 q 557 274 549 297 q 580 233 565 250 q 613 206 594 215 q 654 196 632 196 q 695 206 676 196 q 728 233 714 215 q 751 274 743 250 q 760 324 760 297 q 754 363 760 346 l 360 757 l 360 965 l 1047 965 l 1047 757 z "},"6":{"ha":1157,"x_min":340,"x_max":1049,"o":"m 763 743 q 876 697 824 731 q 967 613 928 663 q 1027 500 1006 563 q 1049 368 1049 438 q 1021 220 1049 289 q 945 99 993 151 q 833 17 897 47 q 694 -12 768 -12 q 556 17 621 -12 q 444 99 492 47 q 368 220 396 151 q 340 368 340 289 q 365 508 340 443 q 431 624 389 572 l 697 1015 l 951 1015 l 763 743 m 694 194 q 751 208 725 194 q 797 246 778 222 q 828 301 817 269 q 840 368 840 332 q 828 435 840 404 q 797 490 817 467 q 751 528 778 514 q 694 542 725 542 q 633 526 661 542 q 583 482 604 510 l 576 472 q 555 424 563 450 q 547 368 547 397 q 559 301 547 332 q 591 246 571 269 q 638 208 611 222 q 694 194 664 194 z "},"7":{"ha":1157,"x_min":326,"x_max":1063,"o":"m 326 988 l 1063 988 l 1063 779 l 607 -10 l 363 -10 l 819 779 l 326 779 l 326 988 l 326 988 z "},"8":{"ha":1157,"x_min":372,"x_max":1015,"o":"m 928 572 q 992 465 968 525 q 1015 335 1015 404 q 990 201 1015 264 q 922 91 965 138 q 819 17 878 44 q 694 -10 761 -10 q 569 17 628 -10 q 466 91 510 44 q 397 201 422 138 q 372 335 372 264 q 396 463 372 401 q 461 572 419 524 q 422 722 422 642 q 444 835 422 782 q 502 928 465 889 q 588 991 539 968 q 694 1014 638 1014 q 800 991 750 1014 q 887 928 850 968 q 945 835 924 889 q 967 722 967 782 q 928 572 967 642 m 694 806 q 648 781 667 806 q 629 722 629 757 q 648 664 629 689 q 694 639 667 639 q 740 664 721 639 q 760 722 760 689 q 740 781 760 757 q 694 806 721 806 m 694 197 q 739 208 718 197 q 775 238 760 219 q 799 282 790 257 q 808 335 808 307 q 799 389 808 364 q 775 433 790 414 q 739 462 760 451 q 694 472 718 472 q 658 465 674 472 q 633 450 643 458 q 594 401 608 431 q 581 335 581 371 q 590 282 581 307 q 614 238 599 257 q 650 208 629 219 q 694 197 671 197 z "},"9":{"ha":1157,"x_min":340,"x_max":1049,"o":"m 1049 635 q 1024 496 1049 561 q 957 381 1000 431 l 692 -11 l 438 -11 l 625 261 q 512 308 564 274 q 422 392 460 342 q 362 503 383 442 q 340 635 340 565 q 368 783 340 714 q 444 905 396 853 q 556 987 492 957 q 694 1017 621 1017 q 833 987 768 1017 q 945 905 897 957 q 1021 783 993 853 q 1049 635 1049 714 m 694 461 q 758 478 729 461 q 807 525 788 496 q 840 635 840 574 q 828 702 840 671 q 797 757 817 733 q 751 794 778 781 q 694 808 725 808 q 638 794 664 808 q 591 757 611 781 q 559 702 571 733 q 547 635 547 671 q 559 567 547 599 q 591 513 571 536 q 638 475 611 489 q 694 461 664 461 z "},"\u0000":{"ha":0,"x_min":0,"x_max":0,"o":""},"\r":{"ha":694,"x_min":0,"x_max":0,"o":""}," ":{"ha":694,"x_min":0,"x_max":0,"o":""},"E":{"ha":1157,"x_min":319,"x_max":1069,"o":"m 1069 779 l 688 779 l 944 536 l 944 328 l 528 328 l 528 196 l 1069 196 l 1069 -12 l 528 -12 l 424 -12 l 319 -12 l 319 88 l 319 94 l 319 101 l 319 425 l 319 432 l 319 439 l 319 536 l 528 536 l 625 536 l 381 779 l 381 988 l 1069 988 l 1069 779 z "},"F":{"ha":1157,"x_min":319,"x_max":1069,"o":"m 1069 776 l 688 776 l 944 533 l 944 325 l 528 325 l 528 -12 l 319 -12 l 319 422 l 319 429 l 319 436 l 319 533 l 528 533 l 625 533 l 382 776 l 382 985 l 1069 985 l 1069 776 z "},"G":{"ha":1157,"x_min":238,"x_max":1150,"o":"m 1150 399 q 1144 368 1150 381 q 1090 222 1128 290 q 994 101 1051 154 q 856 15 932 44 q 697 -15 779 -15 q 519 23 603 -15 q 369 135 435 61 q 272 294 306 206 q 238 482 238 383 q 272 671 238 582 q 369 831 306 760 q 519 942 435 904 q 697 981 603 981 q 896 932 803 981 q 1056 794 989 883 l 889 671 q 803 746 853 719 q 697 772 753 772 q 599 749 644 772 q 519 688 554 726 q 465 595 485 649 q 446 482 446 542 q 465 369 446 422 q 519 278 485 317 q 599 216 554 239 q 697 193 644 193 q 806 221 756 193 q 892 297 856 249 l 658 297 l 658 506 l 1039 506 l 1046 506 l 1053 506 l 1150 506 l 1150 399 l 1150 399 z "},"H":{"ha":1157,"x_min":319,"x_max":1069,"o":"m 861 990 l 1069 990 l 1069 -14 l 861 -14 l 861 326 l 528 326 l 528 -14 l 319 -14 l 319 990 l 528 990 l 528 535 l 861 535 l 861 990 l 861 990 z "},"I":{"ha":1157,"x_min":590,"x_max":799,"o":"m 799 986 l 799 -12 l 590 -12 l 590 986 l 799 986 l 799 986 z "},"J":{"ha":1157,"x_min":318,"x_max":1069,"o":"m 1069 278 l 861 278 l 861 789 l 318 789 l 318 997 l 1069 997 l 1069 893 l 1069 278 m 694 196 q 763 204 732 196 q 817 225 794 213 q 851 251 839 238 q 863 278 863 265 l 1069 278 q 1040 164 1069 217 q 961 72 1011 111 q 842 10 911 32 q 694 -12 774 -12 q 549 10 617 -12 q 430 71 481 32 q 350 162 379 110 q 321 275 321 214 l 321 379 l 529 379 l 529 275 l 528 275 q 542 249 529 263 q 576 223 554 235 q 628 203 599 211 q 694 196 658 196 z "},"K":{"ha":1157,"x_min":244,"x_max":1144,"o":"m 1144 988 l 639 481 l 1131 -10 l 835 -11 l 453 371 l 453 -10 l 244 -10 l 244 581 l 244 581 l 244 581 l 244 988 l 453 988 l 453 667 l 490 628 l 851 988 l 1144 988 l 1144 988 z "},"L":{"ha":1157,"x_min":319,"x_max":1069,"o":"m 1069 196 l 1069 -12 l 528 -12 l 528 -12 l 319 -12 l 319 986 l 528 986 l 528 196 l 1069 196 l 1069 196 z "},"M":{"ha":1157,"x_min":200,"x_max":1189,"o":"m 981 986 l 1189 986 l 1189 -11 l 981 -11 l 981 643 l 747 339 l 747 338 l 643 338 l 408 646 l 408 -10 l 200 -10 l 200 986 l 408 986 l 694 614 l 981 986 l 981 986 l 981 986 z "},"N":{"ha":1157,"x_min":319,"x_max":1069,"o":"m 861 985 l 1069 985 l 1069 -12 l 861 -12 l 861 215 l 528 650 l 529 -12 l 319 -12 l 319 992 l 528 992 l 532 986 l 861 558 l 861 985 l 861 985 z "},"O":{"ha":1157,"x_min":235,"x_max":1154,"o":"m 694 -12 q 516 26 600 -12 q 365 138 432 64 q 268 297 301 208 q 235 485 235 386 q 268 674 235 585 q 365 833 301 763 q 516 945 432 907 q 694 983 600 983 q 873 945 789 983 q 1024 833 957 907 q 1120 674 1086 763 q 1154 485 1154 585 q 1120 297 1154 386 q 1024 138 1086 208 q 873 26 957 64 q 694 -12 789 -12 m 694 775 q 596 752 642 775 q 516 690 550 729 q 462 598 482 651 q 442 485 442 544 q 462 372 442 425 q 516 280 482 319 q 596 217 550 240 q 694 194 642 194 q 792 217 746 194 q 872 280 838 240 q 926 372 907 319 q 946 485 946 425 q 926 598 946 544 q 872 690 907 651 q 792 752 838 729 q 694 775 746 775 z "},"P":{"ha":1157,"x_min":275,"x_max":1114,"o":"m 790 988 q 916 962 857 988 q 1019 891 975 936 q 1088 786 1063 846 q 1114 658 1114 726 q 1088 531 1114 590 q 1019 426 1063 471 q 916 355 975 381 q 790 329 857 329 l 790 328 l 483 328 l 483 -10 l 275 -10 l 275 536 l 483 536 l 581 536 l 338 779 l 338 988 l 790 988 m 854 557 q 892 600 878 574 q 906 658 906 626 q 872 744 906 708 q 790 779 839 779 l 632 779 l 854 557 z "},"Q":{"ha":1157,"x_min":165,"x_max":1224,"o":"m 953 -10 l 875 68 q 756 9 819 29 q 625 -11 693 -11 q 447 27 531 -11 q 296 139 363 65 q 199 299 232 210 q 165 486 165 388 q 199 675 165 586 q 296 835 232 764 q 447 947 363 908 q 625 985 531 985 q 803 947 718 985 q 953 835 888 908 q 1051 675 1017 764 q 1085 486 1085 586 q 1010 214 1085 338 l 1224 -10 l 953 -10 m 625 196 q 724 219 676 196 l 615 328 q 603 339 608 333 q 592 351 597 344 l 532 413 l 589 469 q 619 500 601 488 l 679 560 l 739 496 q 751 485 746 490 q 763 472 757 479 l 857 374 q 876 486 876 428 q 857 599 876 546 q 803 692 838 653 q 722 753 768 731 q 625 776 676 776 q 526 753 572 776 q 447 692 481 731 q 392 599 413 653 q 372 486 372 546 q 392 374 372 426 q 447 281 413 321 q 526 219 481 242 q 625 196 572 196 z "},"R":{"ha":1157,"x_min":269,"x_max":1118,"o":"m 485 324 l 479 324 l 479 -12 l 271 -12 l 271 324 l 271 421 q 269 428 269 424 q 271 435 269 433 l 271 532 l 367 532 l 375 532 l 382 532 l 575 532 l 331 775 l 331 983 l 786 983 q 912 958 853 983 q 1015 887 971 932 q 1084 782 1058 842 q 1110 654 1110 722 q 1084 526 1110 586 q 1015 422 1058 467 q 912 351 971 376 q 786 325 853 325 l 786 324 l 781 324 l 1118 -12 l 821 -14 l 485 324 m 628 775 l 850 553 q 888 596 874 569 q 901 654 901 622 q 868 740 901 704 q 786 775 835 775 l 628 775 z "},"S":{"ha":1157,"x_min":247,"x_max":1140,"o":"m 988 522 q 1101 420 1061 481 q 1140 292 1140 360 q 1101 163 1140 222 q 988 60 1061 103 q 851 7 926 25 q 694 -11 776 -11 q 587 -1 644 -11 q 476 26 529 8 q 378 69 422 44 q 313 125 335 94 l 451 282 q 494 251 467 265 q 556 227 522 238 q 626 210 590 217 q 694 204 663 204 q 796 215 747 204 q 881 247 844 226 q 906 292 906 263 q 881 336 906 321 q 796 367 844 356 q 694 378 747 378 q 538 397 613 378 q 401 450 463 415 q 288 552 328 492 q 247 681 247 613 q 288 810 247 750 q 401 911 328 869 q 538 965 463 947 q 694 983 613 983 q 802 974 744 983 q 913 946 860 964 q 1010 902 967 928 q 1076 846 1054 876 l 938 690 q 894 721 922 707 q 831 745 865 735 q 761 762 797 756 q 694 768 725 768 q 593 757 642 768 q 508 725 544 746 q 482 681 482 710 q 508 636 482 651 q 593 605 544 617 q 694 593 642 593 l 694 594 q 851 576 776 594 q 988 522 926 557 z "},"T":{"ha":1157,"x_min":319,"x_max":1068,"o":"m 1068 989 l 1068 781 l 799 781 l 799 -10 l 590 -10 l 590 781 l 319 781 l 319 989 l 1068 989 l 1068 989 z "},"U":{"ha":1157,"x_min":319,"x_max":1069,"o":"m 1069 315 l 1068 315 q 1037 187 1067 249 q 953 81 1007 125 q 834 13 900 36 q 694 -11 768 -11 q 555 13 621 -11 q 436 81 489 36 q 352 187 382 125 q 319 315 322 249 l 319 996 l 528 996 l 528 315 q 543 269 529 290 q 580 231 557 247 q 632 206 603 215 q 694 196 661 196 q 757 206 728 196 q 809 231 786 215 q 846 269 832 247 q 861 315 860 290 l 861 990 l 1069 990 l 1069 315 z "},"V":{"ha":1157,"x_min":281,"x_max":1107,"o":"m 1107 1003 l 767 -12 l 767 -12 l 618 -12 l 618 -12 l 281 1003 l 500 1003 l 693 425 l 886 1003 l 1107 1003 l 1107 1003 z "},"W":{"ha":1157,"x_min":25,"x_max":1363,"o":"m 1363 1007 l 1022 -8 l 1022 -8 l 1022 -8 l 889 -8 l 693 313 l 500 -4 l 500 -6 l 363 -6 l 25 1007 l 246 1007 l 467 344 l 640 628 l 744 628 l 744 626 l 918 343 l 1142 1007 l 1363 1007 l 1363 1007 z "},"X":{"ha":1157,"x_min":225,"x_max":1164,"o":"m 1164 -11 l 911 -11 l 694 307 l 478 -11 l 225 -11 l 568 494 l 228 994 l 481 994 l 694 681 l 907 994 l 1161 996 l 821 493 l 1164 -11 l 1164 -11 z "},"Y":{"ha":1157,"x_min":225,"x_max":1164,"o":"m 910 993 l 1164 994 l 479 -14 l 225 -14 l 569 492 l 228 993 l 482 994 l 696 678 l 910 993 l 910 993 z "},"Z":{"ha":1157,"x_min":319,"x_max":1069,"o":"m 1069 -12 l 701 -12 q 698 -13 699 -12 q 694 -14 697 -14 q 690 -13 692 -14 q 688 -12 689 -12 l 356 -12 l 356 196 l 794 776 l 319 776 l 319 985 l 1056 985 l 1056 776 l 635 196 l 688 196 l 694 196 l 701 196 l 1069 196 l 1069 -12 z "},"a":{"ha":1157,"x_min":319,"x_max":1069,"o":"m 1069 668 l 1069 -12 l 861 -12 l 861 272 l 528 272 l 528 -12 l 319 -12 l 319 668 q 351 796 321 735 q 436 903 382 857 q 555 971 489 947 q 694 994 621 994 q 833 971 767 994 q 953 903 900 947 q 1037 796 1007 857 q 1068 668 1067 735 l 1069 668 m 861 481 l 861 668 q 844 715 858 693 q 808 752 831 736 q 757 777 786 768 q 694 786 728 786 q 632 777 661 786 q 580 752 603 768 q 543 715 557 736 q 528 668 529 693 l 528 481 l 861 481 z "},"b":{"ha":1157,"x_min":275,"x_max":1114,"o":"m 1114 658 q 1092 538 1114 594 q 1031 438 1069 482 q 1085 357 1067 401 q 1104 264 1104 313 q 1076 153 1104 206 q 1000 61 1049 100 q 899 8 956 26 q 781 -10 843 -10 l 386 -10 l 379 -10 l 372 -10 l 275 -10 l 275 88 l 275 94 l 275 101 l 275 199 l 275 425 l 275 432 l 275 439 l 275 536 l 483 536 l 579 536 l 335 779 l 335 988 l 790 988 q 916 962 857 988 q 1019 891 975 936 q 1088 786 1063 846 q 1114 658 1114 726 m 632 779 l 854 557 q 892 600 878 574 q 907 658 907 626 q 898 706 907 683 q 873 744 889 728 q 835 769 857 760 q 790 779 814 779 l 632 779 m 781 199 q 865 222 833 199 q 896 264 896 244 q 867 304 896 283 q 790 328 839 325 l 483 328 l 483 199 l 781 199 z "},"c":{"ha":1157,"x_min":292,"x_max":1096,"o":"m 751 194 q 845 215 800 194 q 926 276 890 236 l 1081 138 q 930 26 1014 64 q 751 -12 846 -12 q 574 26 658 -12 q 424 138 489 64 q 326 297 360 208 q 292 485 292 386 q 326 674 292 585 q 424 833 360 763 q 574 945 489 907 q 751 983 658 983 q 941 940 851 983 q 1096 815 1031 896 l 936 683 q 751 775 861 775 q 653 752 699 775 q 574 690 608 729 q 519 598 539 651 q 500 485 500 544 q 519 372 500 425 q 574 280 539 319 q 653 217 608 240 q 751 194 699 194 z "},"d":{"ha":1157,"x_min":271,"x_max":1118,"o":"m 1028 818 q 1095 665 1072 750 q 1118 488 1118 581 q 1095 310 1118 394 q 1028 157 1072 225 q 903 34 975 78 q 749 -10 831 -10 l 749 -11 l 479 -11 l 375 -11 l 271 -11 l 271 86 l 271 93 l 271 100 l 271 875 l 271 882 l 271 889 l 271 986 l 368 986 l 375 986 l 383 986 l 479 986 l 749 986 q 903 942 831 986 q 1028 818 975 899 m 828 261 q 871 364 856 306 q 886 488 886 422 q 871 611 886 553 q 828 714 856 669 q 788 761 808 744 q 749 778 767 778 l 479 778 l 479 197 l 749 197 q 788 215 767 197 q 828 261 808 232 z "},"e":{"ha":1157,"x_min":319,"x_max":1069,"o":"m 1069 779 l 688 779 l 944 536 l 944 328 l 528 328 l 528 196 l 1069 196 l 1069 -12 l 528 -12 l 424 -12 l 319 -12 l 319 88 l 319 94 l 319 101 l 319 425 l 319 432 l 319 439 l 319 536 l 528 536 l 625 536 l 381 779 l 381 988 l 1069 988 l 1069 779 z "},"f":{"ha":1157,"x_min":319,"x_max":1069,"o":"m 1069 776 l 688 776 l 944 533 l 944 325 l 528 325 l 528 -12 l 319 -12 l 319 422 l 319 429 l 319 436 l 319 533 l 528 533 l 625 533 l 382 776 l 382 985 l 1069 985 l 1069 776 z "},"g":{"ha":1157,"x_min":238,"x_max":1150,"o":"m 1150 399 q 1144 368 1150 381 q 1090 222 1128 290 q 994 101 1051 154 q 856 15 932 44 q 697 -15 779 -15 q 519 23 603 -15 q 369 135 435 61 q 272 294 306 206 q 238 482 238 383 q 272 671 238 582 q 369 831 306 760 q 519 942 435 904 q 697 981 603 981 q 896 932 803 981 q 1056 794 989 883 l 889 671 q 803 746 853 719 q 697 772 753 772 q 599 749 644 772 q 519 688 554 726 q 465 595 485 649 q 446 482 446 542 q 465 369 446 422 q 519 278 485 317 q 599 216 554 239 q 697 193 644 193 q 806 221 756 193 q 892 297 856 249 l 658 297 l 658 506 l 1039 506 l 1046 506 l 1053 506 l 1150 506 l 1150 399 l 1150 399 z "},"h":{"ha":1157,"x_min":319,"x_max":1069,"o":"m 861 990 l 1069 990 l 1069 -14 l 861 -14 l 861 326 l 528 326 l 528 -14 l 319 -14 l 319 990 l 528 990 l 528 535 l 861 535 l 861 990 l 861 990 z "},"i":{"ha":1157,"x_min":590,"x_max":799,"o":"m 799 986 l 799 -12 l 590 -12 l 590 986 l 799 986 l 799 986 z "},"j":{"ha":1157,"x_min":318,"x_max":1069,"o":"m 1069 278 l 861 278 l 861 789 l 318 789 l 318 997 l 1069 997 l 1069 893 l 1069 278 m 694 196 q 763 204 732 196 q 817 225 794 213 q 851 251 839 238 q 863 278 863 265 l 1069 278 q 1040 164 1069 217 q 961 72 1011 111 q 842 10 911 32 q 694 -12 774 -12 q 549 10 617 -12 q 430 71 481 32 q 350 162 379 110 q 321 275 321 214 l 321 379 l 529 379 l 529 275 l 528 275 q 542 249 529 263 q 576 223 554 235 q 628 203 599 211 q 694 196 658 196 z "},"k":{"ha":1157,"x_min":244,"x_max":1144,"o":"m 1144 988 l 639 481 l 1131 -10 l 835 -11 l 453 371 l 453 -10 l 244 -10 l 244 581 l 244 581 l 244 581 l 244 988 l 453 988 l 453 667 l 490 628 l 851 988 l 1144 988 l 1144 988 z "},"l":{"ha":1157,"x_min":319,"x_max":1069,"o":"m 1069 196 l 1069 -12 l 528 -12 l 528 -12 l 319 -12 l 319 986 l 528 986 l 528 196 l 1069 196 l 1069 196 z "},"m":{"ha":1157,"x_min":200,"x_max":1189,"o":"m 981 986 l 1189 986 l 1189 -11 l 981 -11 l 981 643 l 747 339 l 747 338 l 643 338 l 408 646 l 408 -10 l 200 -10 l 200 986 l 408 986 l 694 614 l 981 986 l 981 986 l 981 986 z "},"n":{"ha":1157,"x_min":319,"x_max":1069,"o":"m 861 985 l 1069 985 l 1069 -12 l 861 -12 l 861 215 l 528 650 l 529 -12 l 319 -12 l 319 992 l 528 992 l 532 986 l 861 558 l 861 985 l 861 985 z "},"o":{"ha":1157,"x_min":235,"x_max":1154,"o":"m 694 -12 q 516 26 600 -12 q 365 138 432 64 q 268 297 301 208 q 235 485 235 386 q 268 674 235 585 q 365 833 301 763 q 516 945 432 907 q 694 983 600 983 q 873 945 789 983 q 1024 833 957 907 q 1120 674 1086 763 q 1154 485 1154 585 q 1120 297 1154 386 q 1024 138 1086 208 q 873 26 957 64 q 694 -12 789 -12 m 694 775 q 596 752 642 775 q 516 690 550 729 q 462 598 482 651 q 442 485 442 544 q 462 372 442 425 q 516 280 482 319 q 596 217 550 240 q 694 194 642 194 q 792 217 746 194 q 872 280 838 240 q 926 372 907 319 q 946 485 946 425 q 926 598 946 544 q 872 690 907 651 q 792 752 838 729 q 694 775 746 775 z "},"p":{"ha":1157,"x_min":275,"x_max":1114,"o":"m 790 988 q 916 962 857 988 q 1019 891 975 936 q 1088 786 1063 846 q 1114 658 1114 726 q 1088 531 1114 590 q 1019 426 1063 471 q 916 355 975 381 q 790 329 857 329 l 790 328 l 483 328 l 483 -10 l 275 -10 l 275 536 l 483 536 l 581 536 l 338 779 l 338 988 l 790 988 m 854 557 q 892 600 878 574 q 906 658 906 626 q 872 744 906 708 q 790 779 839 779 l 632 779 l 854 557 z "},"q":{"ha":1157,"x_min":165,"x_max":1224,"o":"m 953 -10 l 875 68 q 756 9 819 29 q 625 -11 693 -11 q 447 27 531 -11 q 296 139 363 65 q 199 299 232 210 q 165 486 165 388 q 199 675 165 586 q 296 835 232 764 q 447 947 363 908 q 625 985 531 985 q 803 947 718 985 q 953 835 888 908 q 1051 675 1017 764 q 1085 486 1085 586 q 1010 214 1085 338 l 1224 -10 l 953 -10 m 625 196 q 724 219 676 196 l 615 328 q 603 339 608 333 q 592 351 597 344 l 532 413 l 589 469 q 619 500 601 488 l 679 560 l 739 496 q 751 485 746 490 q 763 472 757 479 l 857 374 q 876 486 876 428 q 857 599 876 546 q 803 692 838 653 q 722 753 768 731 q 625 776 676 776 q 526 753 572 776 q 447 692 481 731 q 392 599 413 653 q 372 486 372 546 q 392 374 372 426 q 447 281 413 321 q 526 219 481 242 q 625 196 572 196 z "},"r":{"ha":1157,"x_min":269,"x_max":1118,"o":"m 485 324 l 479 324 l 479 -12 l 271 -12 l 271 324 l 271 421 q 269 428 269 424 q 271 435 269 433 l 271 532 l 367 532 l 375 532 l 382 532 l 575 532 l 331 775 l 331 983 l 786 983 q 912 958 853 983 q 1015 887 971 932 q 1084 782 1058 842 q 1110 654 1110 722 q 1084 526 1110 586 q 1015 422 1058 467 q 912 351 971 376 q 786 325 853 325 l 786 324 l 781 324 l 1118 -12 l 821 -14 l 485 324 m 628 775 l 850 553 q 888 596 874 569 q 901 654 901 622 q 868 740 901 704 q 786 775 835 775 l 628 775 z "},"s":{"ha":1157,"x_min":247,"x_max":1140,"o":"m 988 522 q 1101 420 1061 481 q 1140 292 1140 360 q 1101 163 1140 222 q 988 60 1061 103 q 851 7 926 25 q 694 -11 776 -11 q 587 -1 644 -11 q 476 26 529 8 q 378 69 422 44 q 313 125 335 94 l 451 282 q 494 251 467 265 q 556 227 522 238 q 626 210 590 217 q 694 204 663 204 q 796 215 747 204 q 881 247 844 226 q 906 292 906 263 q 881 336 906 321 q 796 367 844 356 q 694 378 747 378 q 538 397 613 378 q 401 450 463 415 q 288 552 328 492 q 247 681 247 613 q 288 810 247 750 q 401 911 328 869 q 538 965 463 947 q 694 983 613 983 q 802 974 744 983 q 913 946 860 964 q 1010 902 967 928 q 1076 846 1054 876 l 938 690 q 894 721 922 707 q 831 745 865 735 q 761 762 797 756 q 694 768 725 768 q 593 757 642 768 q 508 725 544 746 q 482 681 482 710 q 508 636 482 651 q 593 605 544 617 q 694 593 642 593 l 694 594 q 851 576 776 594 q 988 522 926 557 z "},"t":{"ha":1157,"x_min":319,"x_max":1068,"o":"m 1068 989 l 1068 781 l 799 781 l 799 -10 l 590 -10 l 590 781 l 319 781 l 319 989 l 1068 989 l 1068 989 z "},"u":{"ha":1157,"x_min":319,"x_max":1069,"o":"m 1069 315 l 1068 315 q 1037 187 1067 249 q 953 81 1007 125 q 834 13 900 36 q 694 -11 768 -11 q 555 13 621 -11 q 436 81 489 36 q 352 187 382 125 q 319 315 322 249 l 319 996 l 528 996 l 528 315 q 543 269 529 290 q 580 231 557 247 q 632 206 603 215 q 694 196 661 196 q 757 206 728 196 q 809 231 786 215 q 846 269 832 247 q 861 315 860 290 l 861 990 l 1069 990 l 1069 315 z "},"v":{"ha":1157,"x_min":281,"x_max":1107,"o":"m 1107 1003 l 767 -12 l 767 -12 l 618 -12 l 618 -12 l 281 1003 l 500 1003 l 693 425 l 886 1003 l 1107 1003 l 1107 1003 z "},"w":{"ha":1157,"x_min":25,"x_max":1363,"o":"m 1363 1007 l 1022 -8 l 1022 -8 l 1022 -8 l 889 -8 l 693 313 l 500 -4 l 500 -6 l 363 -6 l 25 1007 l 246 1007 l 467 344 l 640 628 l 744 628 l 744 626 l 918 343 l 1142 1007 l 1363 1007 l 1363 1007 z "},"x":{"ha":1157,"x_min":225,"x_max":1164,"o":"m 1164 -11 l 911 -11 l 694 307 l 478 -11 l 225 -11 l 568 494 l 228 994 l 481 994 l 694 681 l 907 994 l 1161 996 l 821 493 l 1164 -11 l 1164 -11 z "},"y":{"ha":1157,"x_min":225,"x_max":1164,"o":"m 910 993 l 1164 994 l 479 -14 l 225 -14 l 569 492 l 228 993 l 482 994 l 696 678 l 910 993 l 910 993 z "},"z":{"ha":1157,"x_min":319,"x_max":1069,"o":"m 1069 -12 l 701 -12 q 698 -13 699 -12 q 694 -14 697 -14 q 690 -13 692 -14 q 688 -12 689 -12 l 356 -12 l 356 196 l 794 776 l 319 776 l 319 985 l 1056 985 l 1056 776 l 635 196 l 688 196 l 694 196 l 701 196 l 1069 196 l 1069 -12 z "},"%":{"ha":1157,"x_min":225,"x_max":1164,"o":"m 910 996 l 1164 996 l 479 -12 l 225 -12 l 910 996 m 433 996 l 433 788 l 225 788 l 225 996 l 433 996 m 954 -12 l 954 197 l 1164 197 l 1164 -12 l 954 -12 z "},"+":{"ha":1157,"x_min":496,"x_max":892,"o":"m 892 496 l 892 286 l 799 286 l 799 193 l 590 193 l 590 286 l 496 286 l 496 496 l 590 496 l 590 589 l 799 589 l 799 496 l 892 496 l 892 496 z "},"_":{"ha":1157,"x_min":496,"x_max":892,"o":"m 496 -12 l 496 196 l 892 196 l 892 -12 l 496 -12 l 496 -12 z "},"-":{"ha":1157,"x_min":496,"x_max":892,"o":"m 496 286 l 496 496 l 892 496 l 892 286 l 496 286 l 496 286 z "},";":{"ha":1157,"x_min":590,"x_max":799,"o":"m 590 706 l 799 706 l 799 497 l 590 497 l 590 706 m 590 75 l 590 283 l 799 283 l 799 75 l 799 75 l 799 28 l 751 28 l 751 75 l 590 75 z "},":":{"ha":1157,"x_min":590,"x_max":799,"o":"m 799 706 l 799 497 l 590 497 l 590 706 l 799 706 m 590 285 l 799 285 l 799 76 l 590 76 l 590 285 z "},",":{"ha":1157,"x_min":590,"x_max":799,"o":"m 590 207 l 799 207 l 799 -1 l 799 -1 l 799 -49 l 751 -49 l 751 -1 l 590 -1 l 590 207 l 590 207 z "},".":{"ha":1157,"x_min":590,"x_max":799,"o":"m 590 -1 l 590 207 l 799 207 l 799 -1 l 590 -1 l 590 -1 z "},")":{"ha":1157,"x_min":464,"x_max":925,"o":"m 793 839 q 891 678 857 768 q 925 489 925 589 q 891 299 925 389 q 793 139 857 210 q 642 27 726 65 q 464 -11 558 -11 l 464 196 q 563 219 517 196 q 644 282 610 242 q 698 375 678 322 q 718 489 718 428 q 698 602 718 549 q 644 695 678 656 q 563 758 610 735 q 464 781 517 781 l 464 989 q 642 951 558 989 q 793 839 726 913 z "},"(":{"ha":1157,"x_min":464,"x_max":925,"o":"m 594 839 q 746 951 661 913 q 925 989 831 989 l 925 781 q 826 758 872 781 q 745 695 779 735 q 691 602 711 656 q 671 489 671 549 q 691 375 671 428 q 745 282 711 322 q 826 219 779 242 q 925 196 872 196 l 925 -11 q 746 27 831 -11 q 594 139 661 65 q 497 299 531 210 q 464 489 464 389 q 497 678 464 589 q 594 839 531 768 z "},"]":{"ha":1157,"x_min":486,"x_max":903,"o":"m 694 992 l 903 992 l 903 -15 l 694 -15 l 486 -15 l 486 193 l 694 193 l 694 783 l 486 783 l 486 992 l 694 992 l 694 992 z "},"[":{"ha":1157,"x_min":486,"x_max":903,"o":"m 486 993 l 694 993 l 903 993 l 903 785 l 694 785 l 694 194 l 903 194 l 903 -14 l 694 -14 l 486 -14 l 486 993 l 486 993 z "},"?":{"ha":1157,"x_min":385,"x_max":1004,"o":"m 1004 728 q 988 620 1004 671 q 942 528 971 569 q 872 456 913 486 q 785 410 832 425 l 785 272 l 575 272 l 575 607 l 717 607 q 774 650 751 617 q 796 728 796 683 q 766 815 796 779 q 694 851 736 851 q 623 815 653 851 q 593 728 593 779 l 385 728 q 409 856 385 796 q 476 961 433 917 q 574 1032 518 1006 q 694 1058 631 1058 q 815 1032 758 1058 q 913 961 871 1006 q 980 856 956 917 q 1004 728 1004 796 m 575 196 l 785 196 l 785 -12 l 575 -12 l 575 196 z "},"!":{"ha":1157,"x_min":590,"x_max":799,"o":"m 590 -14 l 590 196 l 799 196 l 799 -14 l 590 -14 m 590 1001 l 799 1001 l 799 289 l 590 289 l 590 1001 z "},"/":{"ha":1157,"x_min":225,"x_max":1164,"o":"m 910 994 l 1164 996 l 479 -12 l 225 -12 l 910 994 l 910 994 z "},"A":{"ha":1157,"x_min":319,"x_max":1069,"o":"m 1069 668 l 1069 -12 l 861 -12 l 861 272 l 528 272 l 528 -12 l 319 -12 l 319 668 q 351 796 321 735 q 436 903 382 857 q 555 971 489 947 q 694 994 621 994 q 833 971 767 994 q 953 903 900 947 q 1037 796 1007 857 q 1068 668 1067 735 l 1069 668 m 861 481 l 861 668 q 844 715 858 693 q 808 752 831 736 q 757 777 786 768 q 694 786 728 786 q 632 777 661 786 q 580 752 603 768 q 543 715 557 736 q 528 668 529 693 l 528 481 l 861 481 z "},"B":{"ha":1157,"x_min":275,"x_max":1114,"o":"m 1114 658 q 1092 538 1114 594 q 1031 438 1069 482 q 1085 357 1067 401 q 1104 264 1104 313 q 1076 153 1104 206 q 1000 61 1049 100 q 899 8 956 26 q 781 -10 843 -10 l 386 -10 l 379 -10 l 372 -10 l 275 -10 l 275 88 l 275 94 l 275 101 l 275 199 l 275 425 l 275 432 l 275 439 l 275 536 l 483 536 l 579 536 l 335 779 l 335 988 l 790 988 q 916 962 857 988 q 1019 891 975 936 q 1088 786 1063 846 q 1114 658 1114 726 m 632 779 l 854 557 q 892 600 878 574 q 907 658 907 626 q 898 706 907 683 q 873 744 889 728 q 835 769 857 760 q 790 779 814 779 l 632 779 m 781 199 q 865 222 833 199 q 896 264 896 244 q 867 304 896 283 q 790 328 839 325 l 483 328 l 483 199 l 781 199 z "},"C":{"ha":1157,"x_min":292,"x_max":1096,"o":"m 751 194 q 845 215 800 194 q 926 276 890 236 l 1081 138 q 930 26 1014 64 q 751 -12 846 -12 q 574 26 658 -12 q 424 138 489 64 q 326 297 360 208 q 292 485 292 386 q 326 674 292 585 q 424 833 360 763 q 574 945 489 907 q 751 983 658 983 q 941 940 851 983 q 1096 815 1031 896 l 936 683 q 751 775 861 775 q 653 752 699 775 q 574 690 608 729 q 519 598 539 651 q 500 485 500 544 q 519 372 500 425 q 574 280 539 319 q 653 217 608 240 q 751 194 699 194 z "},"D":{"ha":1157,"x_min":271,"x_max":1118,"o":"m 1028 818 q 1095 665 1072 750 q 1118 488 1118 581 q 1095 310 1118 394 q 1028 157 1072 225 q 903 34 975 78 q 749 -10 831 -10 l 749 -11 l 479 -11 l 375 -11 l 271 -11 l 271 86 l 271 93 l 271 100 l 271 875 l 271 882 l 271 889 l 271 986 l 368 986 l 375 986 l 383 986 l 479 986 l 749 986 q 903 942 831 986 q 1028 818 975 899 m 828 261 q 871 364 856 306 q 886 488 886 422 q 871 611 886 553 q 828 714 856 669 q 788 761 808 744 q 749 778 767 778 l 479 778 l 479 197 l 749 197 q 788 215 767 197 q 828 261 808 232 z "}}}
